<?xml version="1.0" encoding="UTF-8" standalone="no"?>
<!-- Created with Inkscape (http://www.inkscape.org/) -->

<svg
   xmlns:dc="http://purl.org/dc/elements/1.1/"
   xmlns:cc="http://creativecommons.org/ns#"
   xmlns:rdf="http://www.w3.org/1999/02/22-rdf-syntax-ns#"
   xmlns:svg="http://www.w3.org/2000/svg"
   xmlns="http://www.w3.org/2000/svg"
   xmlns:sodipodi="http://sodipodi.sourceforge.net/DTD/sodipodi-0.dtd"
   xmlns:inkscape="http://www.inkscape.org/namespaces/inkscape"
   width="243.65205mm"
   height="50.628998mm"
   viewBox="0 0 243.65205 50.628998"
   version="1.1"
   id="svg934"
   inkscape:version="0.92.2 2405546, 2018-03-11"
   sodipodi:docname="logo-text.svg">
  <defs
     id="defs928" />
  <sodipodi:namedview
     id="base"
     pagecolor="#ffffff"
     bordercolor="#666666"
     borderopacity="1.0"
     inkscape:pageopacity="0.0"
     inkscape:pageshadow="2"
     inkscape:zoom="0.35"
     inkscape:cx="460.44483"
     inkscape:cy="95.67685"
     inkscape:document-units="mm"
     inkscape:current-layer="layer1"
     showgrid="false"
     inkscape:window-width="1920"
     inkscape:window-height="1038"
     inkscape:window-x="1080"
     inkscape:window-y="317"
     inkscape:window-maximized="1" />
  <metadata
     id="metadata931">
    <rdf:RDF>
      <cc:Work
         rdf:about="">
        <dc:format>image/svg+xml</dc:format>
        <dc:type
           rdf:resource="http://purl.org/dc/dcmitype/StillImage" />
        <dc:title></dc:title>
      </cc:Work>
    </rdf:RDF>
  </metadata>
  <g
     inkscape:label="Layer 1"
     inkscape:groupmode="layer"
     id="layer1"
     transform="translate(138.83496,-123.51883)">
    <g
       aria-label="rafflethor"
       style="font-style:normal;font-variant:normal;font-weight:normal;font-stretch:normal;font-size:107.56687164px;line-height:1.25;font-family:Lato;-inkscape-font-specification:Lato;letter-spacing:9.62724781px;word-spacing:0px;fill:#000000;fill-opacity:1;stroke:none;stroke-width:2.68917179"
       id="text959-6"
       transform="matrix(0.22379775,0,0,0.22379775,-321.08597,82.569606)">
      <path
         id="path945"
         style="font-style:normal;font-variant:normal;font-weight:normal;font-stretch:normal;font-size:229.47599792px;font-family:'Berkshire Swash';-inkscape-font-specification:'Berkshire Swash';letter-spacing:22.4008007px;display:inline;fill:#000000;stroke-width:2.68917179"
         d="m 1861.9494,264.65786 q 4.2579,-6.49884 9.076,-11.76513 2.0168,-2.24098 4.3699,-4.36991 2.353,-2.12892 4.8181,-3.80966 2.5771,-1.68073 5.2663,-2.68917 2.6891,-1.00844 5.3783,-1.00844 5.7145,0 8.9639,3.47352 3.2494,3.36146 3.2494,9.52415 0,3.80966 -0.6723,7.39522 -0.5602,3.47351 -2.353,8.51571 h -3.1374 q -0.6723,-3.47351 -3.1373,-5.71449 -2.4651,-2.35303 -7.1712,-2.35303 -3.4735,0 -6.8349,1.34459 -3.3615,1.23254 -6.6109,3.13737 -3.1374,1.90483 -6.0507,4.1458 -2.8012,2.24098 -5.1542,4.25786 v 72.71969 q 0,1.45663 -0.4482,3.47351 -0.4482,2.01688 -2.241,3.80966 -1.6807,1.79278 -5.1542,3.02532 -3.3615,1.34459 -9.3001,1.34459 -5.9386,0 -9.4121,-1.45664 -3.3614,-1.34458 -5.1542,-3.24941 -1.7928,-1.90483 -2.241,-3.92171 -0.4482,-2.01688 -0.4482,-3.24942 v -86.50169 q 0,-3.24942 -1.5687,-5.60245 -1.4566,-2.46507 -5.0422,-2.46507 -1.9048,0 -3.2494,0.67229 -1.3446,0.6723 -2.9133,1.90483 l -2.353,-2.80122 q 2.5771,-2.12892 5.7145,-4.1458 3.2494,-2.12893 6.947,-3.69761 3.6976,-1.56869 7.9555,-2.57713 4.2579,-1.00844 8.9639,-1.00844 4.8181,0 8.1796,1.34459 3.4735,1.23254 5.6024,3.36146 2.241,2.01688 3.4735,4.59401 1.2326,2.57712 1.7928,5.26629 0.6723,2.57712 0.7844,5.0422 0.112,2.35302 0.112,4.03376 z m -163.8266,35.29538 q 0,-14.6784 4.2578,-25.65919 4.2579,-11.09283 11.3169,-18.48805 7.1712,-7.39522 16.5833,-11.09284 9.4121,-3.69761 19.7206,-3.69761 10.3085,0 19.7206,3.47352 9.4121,3.36146 16.4711,10.42054 7.1712,7.05907 11.429,17.92781 4.2579,10.75669 4.2579,25.54713 0,14.6784 -4.2579,25.99533 -4.2578,11.31693 -11.429,19.0483 -7.059,7.73137 -16.4711,11.76513 -9.4121,3.92171 -19.7206,3.92171 -10.3085,0 -19.7206,-3.69761 -9.4121,-3.80967 -16.5833,-11.20489 -7.059,-7.39522 -11.3169,-18.48805 -4.2578,-11.09284 -4.2578,-25.77123 z m 68.91,-1.12049 q 0,-8.96391 -0.6723,-17.25552 -0.5602,-8.40366 -2.353,-14.9025 -1.7928,-6.49883 -5.1543,-10.30849 -3.3614,-3.92171 -8.8518,-3.92171 -5.4904,0 -8.8519,4.14581 -3.3615,4.03376 -5.1542,10.75669 -1.7928,6.61088 -2.3531,15.12659 -0.5602,8.51571 -0.5602,17.47962 0,8.9639 0.5602,17.59166 0.5603,8.51571 2.3531,15.23864 1.7927,6.72293 5.1542,10.86874 3.3615,4.03376 8.8519,4.03376 5.4904,0 8.8518,-4.25786 3.3615,-4.25785 5.1543,-11.20488 1.7928,-6.94703 2.353,-15.68684 0.6723,-8.73981 0.6723,-17.70371 z m -150.5934,-36.52792 q 4.1458,-5.93859 9.4121,-10.64464 2.1289,-2.01688 4.706,-3.92171 2.6892,-1.90483 5.6024,-3.36146 3.0254,-1.56869 6.2748,-2.46508 3.3614,-0.89639 6.835,-0.89639 7.5072,0 13.4458,2.91327 5.9386,2.91327 9.9724,9.74825 4.0337,6.83498 6.1627,18.15191 2.1289,11.20488 2.1289,27.90016 0,16.24708 -2.9133,28.2363 -2.9133,11.98923 -7.6193,20.39289 -4.7061,8.40366 -10.6446,13.66996 -5.9386,5.37834 -11.9893,8.40366 -6.0506,3.02532 -11.6531,4.1458 -5.6024,1.23254 -9.6362,1.34459 l -1.1204,-4.594 q 5.0422,-1.23254 8.9639,-4.594 3.9217,-3.36147 6.6108,-10.98079 2.6892,-7.73137 4.0338,-20.72903 1.4566,-12.99767 1.4566,-33.5026 0,-14.11815 -1.3445,-22.52182 -1.2326,-8.51571 -3.3615,-12.88561 -2.0169,-4.48195 -4.7061,-5.82654 -2.5771,-1.45663 -5.2663,-1.45663 -3.2494,0 -5.7144,1.79278 -2.4651,1.68073 -4.37,3.92171 -1.7927,2.24097 -3.1373,4.48195 -1.2326,2.24098 -2.1289,3.36146 v 74.84862 q 0,1.45664 -0.4482,3.58556 -0.4482,2.01688 -2.241,3.92171 -1.6808,1.79278 -5.1543,3.02532 -3.3614,1.34459 -9.3,1.34459 -5.9386,0 -9.4121,-1.45664 -3.4735,-1.34458 -5.2663,-3.24941 -1.6807,-1.90483 -2.1289,-3.92171 -0.4482,-2.01688 -0.4482,-3.24942 V 202.69485 q 0,-3.24941 -1.5687,-5.60244 -1.4567,-2.46507 -5.0422,-2.46507 -1.9048,0 -3.3615,0.67229 -1.3446,0.56025 -2.9133,1.79278 l -2.2409,-2.68917 q 2.5771,-2.12893 5.7145,-4.14581 3.1373,-2.12892 6.8349,-3.69761 3.8097,-1.56868 8.0676,-2.57712 4.2578,-1.00844 8.9639,-1.00844 7.2831,0 11.3169,2.01688 4.0338,1.90483 5.9386,4.8181 1.9048,2.80122 2.241,6.05064 0.4482,3.13736 0.4482,5.60244 z m -255.5567,43.58699 q 0,3.58557 1.0084,7.84342 1.1205,4.14581 3.1374,8.40366 2.0168,4.25786 4.9301,8.17957 3.0253,3.80966 6.835,6.83498 3.9217,3.02531 8.6278,4.8181 4.706,1.79278 10.3084,1.79278 3.9218,0 7.2832,-0.89639 3.3615,-0.89639 6.2748,-2.46508 2.9132,-1.56868 5.6024,-3.58556 2.6892,-2.12893 5.3783,-4.48195 l 2.8013,2.68917 q -2.5772,3.47351 -6.6109,7.61932 -4.0338,4.14581 -9.7483,7.84342 -5.7145,3.58556 -13.3338,6.05063 -7.6193,2.35303 -17.3676,2.35303 -9.7482,0 -19.0483,-3.47351 -9.188,-3.58557 -16.3591,-10.64464 -7.1711,-7.05908 -11.541,-17.59167 -4.2579,-10.53259 -4.2579,-24.65074 0,-10.19644 2.5772,-18.71216 2.5771,-8.51571 6.947,-15.35068 4.4819,-6.83498 10.3085,-11.98923 5.9386,-5.15425 12.4374,-8.51571 6.4988,-3.47351 13.2218,-5.15425 6.8349,-1.79278 13.1097,-1.79278 8.2916,0 14.4543,1.79278 6.1627,1.79279 10.1964,4.8181 4.1458,3.02532 6.1627,7.05908 2.0169,3.92171 2.0169,8.29161 0,5.2663 -3.0253,9.52415 -3.0254,4.14581 -8.0676,7.28318 z m 22.5218,-22.74591 q 1.4566,-0.89639 2.353,-1.68073 1.0084,-0.89639 1.5687,-2.01688 0.5602,-1.23254 0.7843,-2.91327 0.3362,-1.79278 0.3362,-4.3699 0,-2.80122 -0.6723,-6.16269 -0.5603,-3.47351 -2.0169,-6.49883 -1.4566,-3.02532 -3.6976,-5.0422 -2.241,-2.01688 -5.3784,-2.01688 -4.0337,0 -6.947,2.46508 -2.8012,2.35302 -4.706,6.16268 -1.7928,3.80966 -2.9133,8.73981 -1.0084,4.8181 -1.5687,9.74825 -0.5602,4.93015 -0.6723,9.52415 -0.112,4.48195 -0.112,7.61932 z m -78.3106,64.31603 q 0,1.45663 -0.5602,3.47351 -0.4482,2.01688 -2.3531,3.80966 -1.7927,1.79278 -5.3783,3.02532 -3.4735,1.34459 -9.4121,1.34459 -5.9386,0 -9.3001,-1.45664 -3.3614,-1.34458 -5.0421,-3.24941 -1.5687,-1.90483 -2.0169,-3.92171 -0.3362,-2.01688 -0.3362,-3.24942 V 202.69485 q 0,-3.24941 -1.5687,-5.60244 -1.4566,-2.46507 -5.0422,-2.46507 -1.9048,0 -3.3614,0.67229 -1.3446,0.56025 -2.9133,1.79278 l -2.241,-2.68917 q 2.5772,-2.12893 5.7145,-4.14581 3.1374,-2.12892 6.835,-3.69761 3.8097,-1.56868 8.0675,-2.57712 4.2579,-1.00844 8.9639,-1.00844 7.2832,0 11.317,2.01688 4.0337,1.90483 5.9385,4.8181 1.9049,2.80122 2.241,6.05064 0.4482,3.13736 0.4482,5.60244 z m -90.8194,-156.75631 q -3.1374,0 -5.9386,1.34459 -2.8012,1.34458 -4.9302,4.3699 -2.0168,2.91327 -3.2494,7.50727 -1.2325,4.594 -1.2325,11.09283 v 27.56402 h 24.5387 v 8.06751 h -24.5387 v 88.29448 q 0,15.23864 -4.0338,28.12425 -3.9217,12.88562 -11.9892,22.18567 -8.0675,9.4121 -20.1688,14.6784 -12.1013,5.26629 -28.2363,5.26629 -5.7145,0 -10.9808,-1.00844 -5.2663,-0.89639 -9.3,-2.57712 -4.0338,-1.68073 -6.3868,-4.03376 -2.4651,-2.24097 -2.4651,-5.0422 0,-2.01687 0.5603,-4.1458 0.5602,-2.01688 1.6807,-3.69761 1.1205,-1.68074 2.8012,-2.80122 1.5687,-1.00844 3.6976,-1.00844 1.2326,0 2.241,1.23253 0.8964,1.23254 1.9048,3.02532 1.0085,1.79278 2.3531,3.92171 1.2325,2.24098 3.2494,4.03376 2.0169,1.79278 5.0422,3.02532 2.9132,1.23253 7.1711,1.23253 5.7145,0 10.0844,-2.35302 4.3699,-2.24098 7.5073,-6.27474 3.1373,-4.03375 5.2663,-9.52415 2.1289,-5.49039 3.3614,-11.76512 1.2326,-6.27474 1.6808,-13.10972 0.5602,-6.83497 0.5602,-13.66995 v -94.00897 h -20.617 v -8.06751 h 20.617 v -13.10972 q 0,-9.86029 2.353,-17.14347 2.4651,-7.39522 6.3868,-12.54947 4.0338,-5.15424 9.076,-8.40366 5.0422,-3.24941 10.1964,-5.15424 5.2663,-1.90483 10.1965,-2.57713 4.9301,-0.67229 8.6277,-0.67229 7.9555,0 14.1182,1.23254 6.1626,1.12049 10.3085,3.13736 4.1458,1.90483 6.2747,4.48196 2.1289,2.57712 2.1289,5.26629 0,2.01688 -0.6723,4.14581 -0.5602,2.01688 -1.6807,3.80966 -1.1205,1.68073 -2.8012,2.80122 -1.5687,1.00844 -3.5856,1.00844 -1.2325,0 -2.241,-1.34459 -1.0084,-1.34458 -2.1289,-3.36146 -1.1205,-2.01688 -2.4651,-4.36991 -1.3446,-2.35302 -3.3614,-4.3699 -1.9049,-2.01688 -4.594,-3.36146 -2.6892,-1.34459 -6.3868,-1.34459 z m -97.2494,0 q -3.1374,0 -5.9386,1.34459 -2.8012,1.34458 -4.9302,4.3699 -2.0169,2.91327 -3.2494,7.50727 -1.2325,4.594 -1.2325,11.09283 v 27.56402 h 24.5387 v 8.06751 h -24.5387 v 88.29448 q 0,15.23864 -4.0338,28.12425 -3.9217,12.88562 -11.9892,22.18567 -8.0675,9.4121 -20.1688,14.6784 -12.1013,5.26629 -28.2363,5.26629 -5.7145,0 -10.9808,-1.00844 -5.2663,-0.89639 -9.3,-2.57712 -4.0338,-1.68073 -6.3868,-4.03376 -2.4651,-2.24097 -2.4651,-5.0422 0,-2.01687 0.5603,-4.1458 0.5602,-2.01688 1.6807,-3.69761 1.1205,-1.68074 2.8012,-2.80122 1.5687,-1.00844 3.6976,-1.00844 1.2325,0 2.241,1.23253 0.8964,1.23254 1.9048,3.02532 1.0085,1.79278 2.353,3.92171 1.2326,2.24098 3.2495,4.03376 2.0168,1.79278 5.0422,3.02532 2.9132,1.23253 7.1711,1.23253 5.7145,0 10.0844,-2.35302 4.3699,-2.24098 7.5072,-6.27474 3.1374,-4.03375 5.2663,-9.52415 2.129,-5.49039 3.3615,-11.76512 1.2325,-6.27474 1.6807,-13.10972 0.5603,-6.83497 0.5603,-13.66995 v -94.00897 h -20.617 v -8.06751 h 20.617 v -13.10972 q 0,-9.86029 2.353,-17.14347 2.4651,-7.39522 6.3868,-12.54947 4.0337,-5.15424 9.0759,-8.40366 5.0422,-3.24941 10.1965,-5.15424 5.2663,-1.90483 10.1964,-2.57713 4.9302,-0.67229 8.6278,-0.67229 7.9555,0 14.1181,1.23254 6.1627,1.12049 10.3085,3.13736 4.1458,1.90483 6.2748,4.48196 2.1289,2.57712 2.1289,5.26629 0,2.01688 -0.6723,4.14581 -0.5602,2.01688 -1.6807,3.80966 -1.1205,1.68073 -2.8013,2.80122 -1.5686,1.00844 -3.5855,1.00844 -1.2325,0 -2.241,-1.34459 -1.0084,-1.34458 -2.1289,-3.36146 -1.1205,-2.01688 -2.4651,-4.36991 -1.3446,-2.35302 -3.3615,-4.3699 -1.9048,-2.01688 -4.594,-3.36146 -2.6891,-1.34459 -6.3867,-1.34459 z M 975.51638,299.28094 q 0,-2.80122 -1.79278,-4.25785 -1.79278,-1.45664 -4.594,-1.45664 -3.92171,0 -7.50727,1.79278 -3.47352,1.79278 -6.16269,5.2663 -2.68917,3.47351 -4.25785,8.62776 -1.56869,5.0422 -1.56869,11.76513 0,6.49883 0.89639,10.75668 1.00844,4.25786 2.57713,6.83498 1.68073,2.46508 3.80966,3.47351 2.12892,1.00844 4.48195,1.00844 2.91327,0 5.49039,-1.45663 2.57713,-1.56868 4.48196,-3.92171 1.90483,-2.35303 3.02531,-5.26629 1.12049,-2.91327 1.12049,-5.82654 z m -17.81576,-49.07738 q -3.80966,0 -7.05908,0.89639 -3.24941,0.89639 -5.60244,2.24097 -2.35302,1.34459 -3.69761,3.02532 -1.34459,1.56869 -1.34459,3.02532 0,1.68073 1.68074,2.46507 1.79278,0.6723 3.92171,1.68074 2.12892,0.89639 3.80966,2.68917 1.79278,1.68073 1.79278,5.26629 0,2.35303 -1.00844,4.36991 -0.89639,1.90483 -2.57713,3.47351 -1.56868,1.45664 -3.80966,2.35303 -2.12892,0.78434 -4.48195,0.78434 -6.27473,0 -10.19644,-4.25786 -3.80966,-4.25785 -3.80966,-11.31693 0,-6.83498 3.58556,-11.65308 3.58556,-4.93014 9.30005,-8.06751 5.82654,-3.13737 13.10972,-4.594 7.28317,-1.56869 14.56634,-1.56869 8.73981,0 16.69528,1.90483 7.95546,1.90483 14.0061,6.05064 6.16274,4.14581 9.74824,10.53259 3.6976,6.38678 3.6976,15.46274 v 63.30758 q 0,1.00844 0.112,2.24098 0.1121,1.23254 0.5603,2.24098 0.4482,1.00844 1.3446,1.68073 0.8964,0.67229 2.5771,0.67229 2.0169,0 3.6976,-1.45663 1.7928,-1.56869 3.1374,-3.13737 l 2.8012,2.35303 q -1.6807,2.35302 -4.0338,5.15424 -2.353,2.80122 -5.7144,5.2663 -3.3615,2.46507 -7.8434,4.1458 -4.482,1.68074 -10.19649,1.68074 -7.05907,0 -12.54947,-4.14581 -5.49039,-4.25786 -7.17112,-12.99766 -3.58556,4.8181 -7.50727,8.06751 -3.80966,3.24942 -7.84342,5.2663 -4.03376,2.01688 -8.17956,2.91327 -4.03376,0.89639 -8.17957,0.89639 -5.37834,0 -10.42054,-1.68074 -5.0422,-1.68073 -9.07595,-5.26629 -3.92171,-3.69761 -6.38679,-9.52415 -2.35302,-5.82654 -2.35302,-14.2302 0,-10.19645 4.03375,-16.69528 4.03376,-6.49883 10.53259,-10.86873 6.61088,-4.48196 14.9025,-7.61932 8.40366,-3.13737 17.14347,-6.61088 6.49883,-2.57713 9.4121,-7.61933 3.02532,-5.15424 3.02532,-10.53258 0,-8.29162 -4.93015,-13.22177 -4.8181,-5.04219 -13.22176,-5.04219 z m -93.81916,14.4543 q 4.25785,-6.49884 9.07595,-11.76513 2.01688,-2.24098 4.36991,-4.36991 2.35302,-2.12892 4.8181,-3.80966 2.57712,-1.68073 5.26629,-2.68917 2.68917,-1.00844 5.37835,-1.00844 5.71449,0 8.9639,3.47352 3.24942,3.36146 3.24942,9.52415 0,3.80966 -0.6723,7.39522 -0.56024,3.47351 -2.35302,8.51571 h -3.13737 q -0.67229,-3.47351 -3.13736,-5.71449 -2.46508,-2.35303 -7.17113,-2.35303 -3.47351,0 -6.83498,1.34459 -3.36146,1.23254 -6.61088,3.13737 -3.13737,1.90483 -6.05064,4.1458 -2.80122,2.24098 -5.15424,4.25786 v 72.71969 q 0,1.45663 -0.4482,3.47351 -0.44819,2.01688 -2.24097,3.80966 -1.68074,1.79278 -5.15425,3.02532 -3.36146,1.34459 -9.30005,1.34459 -5.93859,0 -9.4121,-1.45664 -3.36147,-1.34458 -5.15425,-3.24941 -1.79278,-1.90483 -2.24098,-3.92171 -0.44819,-2.01688 -0.44819,-3.24942 v -86.50169 q 0,-3.24942 -1.56869,-5.60245 -1.45663,-2.46507 -5.04219,-2.46507 -1.90483,0 -3.24942,0.67229 -1.34458,0.6723 -2.91327,1.90483 l -2.35302,-2.80122 q 2.57712,-2.12892 5.71449,-4.1458 3.24941,-2.12893 6.94702,-3.69761 3.69762,-1.56869 7.95547,-2.57713 4.25786,-1.00844 8.96391,-1.00844 4.8181,0 8.17956,1.34459 3.47351,1.23254 5.60244,3.36146 2.24098,2.01688 3.47352,4.59401 1.23253,2.57712 1.79278,5.26629 0.67229,2.57712 0.78434,5.0422 0.11205,2.35302 0.11205,4.03376 z m 642.84584,-64.02013 -23.8083,0.0625 c -1.6433,0.005 -2.972,1.33838 -2.968,2.98165 l 0.016,5.95549 -29.7461,0.0762 c -0.1176,0.0153 -0.2343,0.0397 -0.3478,0.0742 -0.093,0.009 -0.1849,-0.0251 -0.2775,-0.004 l -14.8731,3.21222 c -1.3723,0.2966 -2.3522,1.51301 -2.3485,2.91716 l 0.1211,41.25854 c 0,1.40416 0.9884,2.61403 2.3623,2.90349 l 14.8867,3.13602 c 0.093,0.0208 0.1849,-0.0139 0.2775,-0.006 0.1137,0.0328 0.2304,0.0568 0.3478,0.0723 l 29.7618,-0.0742 0.1778,77.36856 c 0,1.64326 1.3403,2.97197 2.9836,2.96796 l 0.012,5.94963 c 0,1.64353 1.3378,2.97537 2.9816,2.97188 v 0 l 3.1165,-0.0117 c -0.5056,1.3976 -0.9324,2.82318 -1.2759,4.26928 -1.0803,4.45863 -1.6774,9.02038 -1.782,13.60695 -0.052,3.36324 0.66,6.69419 2.0829,9.74215 0.5411,1.11603 1.2597,2.1392 2.1258,3.02659 1.2364,1.31335 2.9523,2.06567 4.7558,2.08676 3.0969,-0.23192 5.7749,-2.24783 6.8524,-5.16025 1.4015,-3.05293 2.0931,-6.38369 2.0222,-9.74214 -0.254,-6.06846 -1.3254,-12.07583 -3.1829,-17.85864 l 3.1439,-0.008 c 1.6435,-0.003 2.9734,-1.3398 2.9699,-2.9836 v -0.002 l -0.016,-5.95158 c 1.6433,-0.005 2.972,-1.34033 2.968,-2.98361 l -0.2013,-77.37832 29.7638,-0.0762 c 0.1178,-0.0171 0.2329,-0.0412 0.3478,-0.0723 0.09,-0.0108 0.1811,0.0211 0.2715,0.002 l 14.8751,-3.21221 c 1.3723,-0.29661 2.3503,-1.51301 2.3466,-2.91717 l -0.1074,-41.24486 c -0.01,-1.40389 -0.9901,-2.61482 -2.3643,-2.9035 l -14.8887,-3.13601 c -0.093,-0.0208 -0.1847,0.0122 -0.2794,0.002 -0.114,-0.0331 -0.2304,-0.0568 -0.3478,-0.0723 l -29.7598,0.0781 -0.016,-5.95548 c -0.01,-1.64327 -1.3404,-2.97198 -2.9836,-2.96797 z m -2.9563,5.94571 0.01,2.97774 -17.8528,0.0469 -0.01,-2.97579 z m 32.7591,8.84726 0.1094,41.6669 -83.3338,0.21689 -0.1094,-41.66886 z m 5.9613,0.69559 8.9255,1.87184 0.098,36.44998 -8.9235,1.92851 z m -95.2506,0.24423 0.1075,40.2601 -8.9254,-1.88942 -0.096,-36.44803 z m 52.47,46.76854 -13.6148,13.68511 -0.033,-13.64603 z m 4.2615,21.03569 0.022,8.41739 -17.8098,17.90358 -0.022,-8.41935 z m 0.086,33.66959 0.055,19.68748 -17.8586,0.0469 v -1.83081 z m -2.9074,25.64883 0.01,2.97383 -11.909,0.0332 v -2.97579 z m -5.9145,10.36739 c 1.843,5.29148 2.8611,10.83521 3.0188,16.43621 0.054,2.43439 -0.4302,4.84945 -1.4185,7.07506 -0.7035,1.39917 -1.3856,1.84797 -1.5456,1.84839 -0.101,-0.004 -0.7822,-0.32648 -1.5416,-1.82494 -0.998,-2.22597 -1.4921,-4.64571 -1.4459,-7.08484 0.1291,-5.60175 1.1182,-11.14863 2.9328,-16.44988 z"
         inkscape:connector-curvature="0" />
    </g>
  </g>
</svg>
